<svg xmlns="http://www.w3.org/2000/svg" width="64" height="64" viewBox="0 0 64 64">
  <g id="Group_189" data-name="Group 189" transform="translate(0 0.409)">
    <circle id="Ellipse_111" data-name="Ellipse 111" cx="17.5" cy="17.5" r="17.5" transform="translate(29 -0.409)" fill="#f55b31"/>
    <path id="Path_702" data-name="Path 702" d="M149.2,351.931a10.6,10.6,0,1,1-10.6-10.6A10.6,10.6,0,0,1,149.2,351.931Zm0,0" transform="translate(-112.102 -298.938)" fill="#ffa000"/>
    <path id="Path_703" data-name="Path 703" d="M47.217,77.071c-.283.01-.562.042-.848.042a22.477,22.477,0,0,1-19.1-34.405c-.26-.011-.514-.04-.777-.04A18.568,18.568,0,0,0,7.949,61.215V68.6A17.766,17.766,0,0,1,1.621,82.2a4.636,4.636,0,0,0,3.015,8.158H48.356a4.637,4.637,0,0,0,2.989-8.182A17.773,17.773,0,0,1,47.217,77.071Zm0,0" transform="translate(0 -37.369)" fill="#ffc107"/>
  </g>
</svg>
