<svg xmlns="http://www.w3.org/2000/svg" width="35" height="35" viewBox="0 0 35 35">
  <g id="dish" transform="translate(0 0)">
    <path id="Path_605" data-name="Path 605" d="M91.619,12.373h24.525a13.443,13.443,0,0,0-9.495-7.978,3.039,3.039,0,0,0,.309-1.319,3.076,3.076,0,0,0-6.152,0,3.039,3.039,0,0,0,.309,1.319A13.443,13.443,0,0,0,91.619,12.373ZM103.881,2.051a1.025,1.025,0,1,1-1.025,1.025A1.026,1.026,0,0,1,103.881,2.051Z" transform="translate(-85.356 0)" fill="#fff"/>
    <path id="Path_606" data-name="Path 606" d="M63.881,211H31v1.025a3.076,3.076,0,0,0,3.076,3.076H60.8a3.076,3.076,0,0,0,3.076-3.076Z" transform="translate(-28.881 -196.576)" fill="#fff"/>
    <path id="Path_607" data-name="Path 607" d="M8.769,313.167a3.116,3.116,0,0,1,2.109-.767l10.267.246,9.978-9.4-.753-.753a2.842,2.842,0,0,0-3.826-.172l-5.825,4.833H12.373V305.1h7.178v-1.025A3.076,3.076,0,0,0,16.475,301H10.8a5.1,5.1,0,0,0-3.634,1.511L0,309.786l6.337,5.638Z" transform="translate(0 -280.424)" fill="#fff"/>
  </g>
</svg>
