<svg id="Group_143" data-name="Group 143" xmlns="http://www.w3.org/2000/svg" width="348.01" height="348.683" viewBox="0 0 348.01 348.683">
  <path id="Path_620" data-name="Path 620" d="M513.352,375.184A166.644,166.644,0,1,1,346.708,541.828,166.644,166.644,0,0,1,513.352,375.184Z" transform="translate(-338.357 -359.79)" fill-rule="evenodd"/>
  <path id="Path_621" data-name="Path 621" d="M551.387,424.938a154.926,154.926,0,1,1-109.548,45.377,154.44,154.44,0,0,1,109.548-45.377Zm105.177,49.748a148.743,148.743,0,1,0,43.565,105.177,148.277,148.277,0,0,0-43.565-105.177Z" transform="translate(-376.392 -397.825)" fill="#fff"/>
  <path id="Path_622" data-name="Path 622" d="M719.947,645.434A102.989,102.989,0,1,1,616.958,748.423,102.989,102.989,0,0,1,719.947,645.434Z" transform="translate(-544.952 -566.385)" fill="#fff" fill-rule="evenodd"/>
  <path id="Path_623" data-name="Path 623" d="M456.946,519.32l1.5-9.034q2.184-13.172,5.553-26.111.931-3.557,1.943-7.093c-14.259,7.148-30.5,2.237-43.948-5.372-1.607-.909-3.235-1.868-4.869-2.87a274.346,274.346,0,0,0-8,36.419c-1.736,12.119-4.875,42.836,8.742,49.914l.2.1.192.11a6.086,6.086,0,0,0,2.061.742c9.272,1.513,22.578-14.4,27.142-20.84a113.487,113.487,0,0,0,9.488-15.966ZM491.4,418.046a81.806,81.806,0,0,1,7.1-9.153c7.286-8.046,17.629-14.037,28.662-9.968,14.192,5.233,19.055,23.327,17.217,36.977-1.525,13.4-11.088,30.835-19.337,41.414q-.909,1.166-1.842,2.316a25.294,25.294,0,0,1,7.738,9.117,27.14,27.14,0,0,1,1.737,4.079c12.727-14.883,28.11-17.259,38.9-12a11.546,11.546,0,0,1,9.185-4.687q2.235-7.128,4.829-14.137c2.258-6.074,4.721-12.081,7.463-17.953a115.126,115.126,0,0,1,8.4-15.181A54.781,54.781,0,0,1,611.5,417.283a25.5,25.5,0,0,1,14.106-6.3,20.871,20.871,0,0,1,14.677,3.584c18.351,12.973,12.036,48.52,5,66.529a80.527,80.527,0,0,1-4.989,10.476,13.364,13.364,0,0,1,4.793.759,13.641,13.641,0,0,1,8.325,17.2l-.058.185-.065.182a65.343,65.343,0,0,1-7.2,14.686c-5.4,8.019-12.528,14.627-21.5,18.414a61.081,61.081,0,0,1-17.443,4.263c.825,3.348,1.478,6.742,2,10.143.134.874.263,1.748.377,2.625l0,.022c9.513,1.312,19.571,3.529,27.745,7.646a36.362,36.362,0,0,1,11.828,9.612,41.474,41.474,0,0,1,2.629,3.617,48.272,48.272,0,0,1,7.538,25.832c-.035,9.01-3.078,19.019-11.783,23.263-7.27,3.545-15.046,1.345-21.289-3.162-6.979-5.038-10.788-11.252-18.32-15.244A67.77,67.77,0,0,1,602.9,626.58a33.783,33.783,0,0,1-9.513,12.291,21.2,21.2,0,0,1-17.37,4.028,17.983,17.983,0,0,1-7.566-3.583,23.413,23.413,0,0,1-5.441-6.2,36.268,36.268,0,0,1-3.413-7.335,43.926,43.926,0,0,1-1.976-9.17,109.3,109.3,0,0,1-.554-16.867,449.78,449.78,0,0,0-62.043-.983c-19.352.888-38.769,2.684-57.947,5.427-15.442,2.208-31.366,5.027-46.394,9.251l-.6.167-.611.1c-21.582,3.548-27.352-19.273-14.346-29.207-16-18.51-20.8-45.648-19.536-72.7a17.246,17.246,0,0,1-31.455-14.1l7.081-17.492-4.749-3.661a37.256,37.256,0,0,1-6.627-6.6c-7.539-9.666-10.054-22.5-7.8-34.441a47.43,47.43,0,0,1,22.143-31.66c10.533-6.474,21.819-7.291,32.986-4.62l6.046-14.5.078-.171a16.23,16.23,0,0,0,.786-2.132c-9.158-3.719-13-13.46-10.915-22.771l8.129-36.3c2.47-11.032,14.975-16.219,25.067-12.133l37.591,15.219c10.118,4.1,15.48,16.489,9.566,26.155l-15.588,25.475a51.33,51.33,0,0,1,18.051-3.239c25.583.1,42.085,19.957,45.4,43.22Zm-88-24.037a18.509,18.509,0,0,1-2.971-.921,16.219,16.219,0,0,0-.918,2.078l-.063.178-1.811,4.61c1.845-2.054,3.767-4.044,5.763-5.945Zm28.231,44.622.457.283c4.922,3.026,13.69,8.081,19.6,8.365,3.17.153,4.4-1.608,5.787-4.357a32.849,32.849,0,0,0,3.354-16.5c-.269-3.265-1.239-6.79-3.827-8.993-1.691-1.439-5.243.881-6.65,1.772-5.051,3.2-9.828,8.245-13.649,12.8-1.79,2.132-3.478,4.35-5.073,6.633Z" transform="translate(-311.255 -309.827)" fill-rule="evenodd"/>
  <path id="Path_624" data-name="Path 624" d="M382.247,509.091c-.251-.034-.5-.078-.744-.118a27.27,27.27,0,0,1-12.121-5.169l-.012.015c-15.718-12.117-15.23-40.892,6.753-54.4,10.5-6.456,22.006-5.168,33.461-.3l9.944-23.852c3.413-7.465,2.532-13.962-2.856-16.143l-2.285-.925c-3.922-1.588-5.175-5.9-4.25-10.031l8.129-36.305c.925-4.132,6.1-5.839,10.03-4.249l18.8,7.609,18.8,7.609c3.927,1.59,6.459,6.418,4.249,10.03L450.719,414.6c-2.208,3.609-6.108,5.837-10.03,4.249l-2.285-.925c-5.387-2.181-10.54,1.873-13.281,9.61l-9.6,24.42A126.464,126.464,0,0,1,427,458.86l.065-.024,2.29,1.556c12.691-20.091,30.964-38.38,52.7-38.356,22.94.154,35.376,21.034,34.926,41.94a57.963,57.963,0,0,1-2.283,14.94,50,50,0,0,1-5.853,13.143,33.2,33.2,0,0,1-9,9.493c-11.268,7.84-25.458,2.667-36.265-3.449a152.869,152.869,0,0,1-26.744-19.277,55.645,55.645,0,0,0,8.969,12.232c-8.269,25.9-26.815,94.552,3.036,110.068,13.2,7.542,30.376-4.365,43.806-23.329a114.915,114.915,0,0,0,18.743-41.153,90.2,90.2,0,0,1-5.86,11.54q2.129-12.844,5.341-25.113a281.6,281.6,0,0,1,9.324-29.265,199.66,199.66,0,0,1,11.036-24.343,88.976,88.976,0,0,1,11.627-17.02c16.881-18.641,29,.767,26.584,18.168-1.2,11.022-10.013,26.893-17.068,35.941q-3.821,4.9-7.555,8.839a133.146,133.146,0,0,1-15.576,13.9c-.94,3.1-1.757,6.24-2.545,9.385q-.19.759-.383,1.557a50.335,50.335,0,0,1,3.176-4.792c6.485-8.691,20.358-19.278,27.725-5.4,3.34,6.293,2.931,17.163.25,23.507-4.241,10.444-7.663,22.417-8.771,33.7-.469,4.778-.122,5.9,4.2,2.326a55.693,55.693,0,0,0,8.368-7.957q1.755-2.026,3.411-4.145a55.953,55.953,0,0,1,8.371-35.66c19.49-30.293,48.932-13.987,31.726,12.666a38.264,38.264,0,0,1-4.373,5.585,46.87,46.87,0,0,1-4.875,4.494,50.078,50.078,0,0,1-4.877,3.473c-4.1,2.572-8.776,5.041-13.543,5.99a28.267,28.267,0,0,0,7.352-.691,60.937,60.937,0,0,0-.623,10.258,22.146,22.146,0,0,0,1.639,8.211,3.945,3.945,0,0,0,4.742,2.345,20.493,20.493,0,0,0,5.415-1.985,37.4,37.4,0,0,0,5.891-3.838,45.083,45.083,0,0,0,5.9-5.626,56.7,56.7,0,0,0,5.447-7.32q.223-1.1.452-2.2.767-3.692,1.552-7.358a17.97,17.97,0,0,0-5.6-2.471,2.446,2.446,0,0,1-1.783-1.793,6.775,6.775,0,0,1-.342-2.988,4.4,4.4,0,0,1,1.09-2.5,2.009,2.009,0,0,1,2.515-.33q.318.1,2.61,1.245,1.331.667,3.125,1.41c1.7-7.691,3.431-15.386,5.4-23.014a24.521,24.521,0,0,1-2.4-3.061c-1.47-2.243-3.062-5.361-3-8.122.044-2.092,2.2.3,2.6.772q.978,1.184,2.5,2.878.832.929,1.792,1.918,1.138-4.2,2.348-8.338,2.987-10.227,6.421-19.467t7.114-17.119a104.337,104.337,0,0,1,7.573-13.715,43.743,43.743,0,0,1,7.955-9.255,14.414,14.414,0,0,1,8.05-3.738,9.8,9.8,0,0,1,7.14,1.6c11.236,7.944,7.844,36.022,1.057,53.39a68.986,68.986,0,0,1-6.5,12.634,65,65,0,0,1-7.729,9.828,37.149,37.149,0,0,1-8.031,6.418c-4.4,2.525-7.356,2.881-12.082,2.331q-2.757,8.448-5.259,16.981a46.08,46.08,0,0,1-8.654-.9c7.179,3.354,17.552,4.295,25.466,3.158,7.946-1.141,14.465-5.25,19.571-11.353a41.355,41.355,0,0,0,6.522-11.516c1.434-3.475,5.631-1.784,4.576,1.554a54.247,54.247,0,0,1-5.939,12.191c-4.177,6.2-9.64,11.44-16.6,14.376-7.515,3.171-19.945,5.094-27.75,2.347l-.014.052-.614,2.25a50.359,50.359,0,0,1,3.045,7.489,95.543,95.543,0,0,1,3.219,14.215q.181,1.175.341,2.37c.314,2.434.652,5.516.867,8.632l.009.127.006.086,0,.041.008.127.007.106v.022l.008.127.008.124v0l.007.127.008.127v.016l.006.111.008.127.007.127.007.127,0,.054,0,.073.006.127,0,.072,0,.054.006.127,0,.091,0,.035.006.126.005.11v.017l.006.126.005.126v0l.005.123.005.125v.021l0,.1,0,.125,0,.04,0,.085,0,.125,0,.058,0,.067,0,.125,0,.076v.048l0,.124,0,.095v.029l0,.123,0,.112v.01l0,.123,0,.123v.008l0,.115,0,.122v.122l0,.121v1.354l0,.19v.116l0,.162v.068l0,.114v.114l0,.113,0,.079v.034l0,.112,0,.1v.017l0,.111,0,.111,0-.008,0-.009,0-.008,0-.009,0-.009,0-.009,0-.008,0-.009,0-.009,0-.008v-.009l0-.008,0-.009,0-.008,0-.009,0-.009,0-.009,0-.008,0-.009,0-.009,0-.009V613.8l0-.009,0-.009,0-.009,0-.009,0-.009,0-.009,0-.009,0-.009,0-.009,0-.009,0-.009,0-.009,0-.009,0-.009,0-.009,0-.009,0-.009,0-.009,0-.009,0-.009,0-.006v0l0-.009.011-.045,0-.009,0-.009.022-.091,0-.009,0-.009,0-.009a68.667,68.667,0,0,0,1.187-7.095c13.116,1.3,23.972,3.66,31.393,7.4,22.134,11.148,20.025,54.335.443,40.2-8.35-6.03-9.519-11.081-20.65-16.581a90.549,90.549,0,0,0-13.033-5.115,115.654,115.654,0,0,1-1.92,12.616,57.372,57.372,0,0,1-4.227,12.994,22.735,22.735,0,0,1-6.3,8.317,10.014,10.014,0,0,1-8.414,1.907,7.086,7.086,0,0,1-2.878-1.448,12.39,12.39,0,0,1-2.822-3.29,25.263,25.263,0,0,1-2.344-5.09,31.4,31.4,0,0,1-1.444-6.849,109.451,109.451,0,0,1-.143-21.132q.106-1.416.229-2.858c2.563-.122,5.153-.148,7.3-.029a59.063,59.063,0,0,0-7.174-1.4v-.018q-.773-.1-1.552-.2c-2.494-.334-4.942-.6-6.786-.768-56.642-5.727-132.7,2.531-172.877,13.824-11.2,1.841-10.55-9.2-1.722-11.146,2.179-.525,4.568-1.073,7.145-1.639a43.915,43.915,0,0,0,15.123,2.7c-5.6-1.078-11.661-4.356-16.185-7.6-32.612-23.895-30.43-85.5-13.274-131.568a159.745,159.745,0,0,1,8.592-19l-1.973-1.521-.014.025a78.494,78.494,0,0,0-10.419-5.713l0,.006a20.484,20.484,0,0,0-4.389-1.495,18.4,18.4,0,0,1,3.9,2.726l-8.11,20.638a2.727,2.727,0,0,1,1.266,3.432l-1.275,3.15L391.73,518.269,381.9,542.552a6.134,6.134,0,0,1-7.965,3.374h0a6.135,6.135,0,0,1-3.374-7.965l9.831-24.283,1.3-3.217a35.7,35.7,0,0,0,6.955-.954,38.686,38.686,0,0,1-6.4-.413l0,0Zm159.013.131q3.717-4.559,7.3-9.848t6.6-10.676a96.851,96.851,0,0,0,5.085-10.41,46.007,46.007,0,0,0,2.806-9.051,14.048,14.048,0,0,0-.063-6.6c-1.245-3.994-4.954-3.848-7.469-.648a43.193,43.193,0,0,0-4.433,7.344q-2.3,4.634-4.742,10.57t-4.7,12.262q-2.258,6.327-4.353,12.479c-1.54,4.524-2.994,9.06-4.482,13.6a70.8,70.8,0,0,0,8.443-9.018Zm66.283,95.848q.129-.855.263-1.717,1.07-6.9,2.372-14.086-1.27,1.558-2.564,3a50.193,50.193,0,0,1-9.5,8.4,15.507,15.507,0,0,1-9.227,2.98,23.885,23.885,0,0,1-11.17-2.857,22.733,22.733,0,0,1-7.325-6.534,28.14,28.14,0,0,1-3.674-7.117q-.438.544-.88,1.081a78.706,78.706,0,0,1-9.064,9.387,32.231,32.231,0,0,1-9.383,5.9,9.753,9.753,0,0,1-5.975.329,14.4,14.4,0,0,1-6.007-3c-7.768-6.419-5.8-14.966-4.133-23.713q.941-4.936,2.112-9.709c1.653-6.737,3.354-13.444,4.823-20.226,1.956-10.056.69-13.527-6.435-4.231a136.641,136.641,0,0,0-8.859,13.475q-.657,3.765-1.242,7.85-1.093,7.65-1.772,16.08t-.562,17.007c.2,7.715-2.489,10.667-10.5,4.288a18.744,18.744,0,0,1-4.554-5.636c-2.75-4.933-2.113-12.538-1.9-18.117q-2.6,5.609-5.784,11.333a152.211,152.211,0,0,1-8.929,14.119q-1.3,1.832-2.67,3.555l-.014-.008c-.085.116-.173.235-.263.354a76.421,76.421,0,0,1-5.657,6.309,42.757,42.757,0,0,1-10.376,7.673,41.13,41.13,0,0,0,11.011-4.444c39.6-6.176,88.4-11.69,127.838-11.719Zm-11.687-49.506a42.394,42.394,0,0,0,5.616-8.247,22.173,22.173,0,0,0,2.633-7.694c.935-4.8-2.081-7.473-6.267-2.356-3.286,4.017-5.827,9.693-7.71,14.507a98.135,98.135,0,0,0-3.582,11.118c3.394-1.331,6.97-4.631,9.309-7.327ZM648.614,534.7a38.179,38.179,0,0,0,7.621-7.984,71.627,71.627,0,0,0,6.49-10.952,99.628,99.628,0,0,0,4.982-12.279,95.867,95.867,0,0,0,3.15-12.019,54.725,54.725,0,0,0,1.094-10.229c-.117-4.393-2.076-13.757-6.952-6.334a79.336,79.336,0,0,0-4.4,8.372q-2.541,5.273-5.711,12.561t-6.515,15.947q-3.344,8.659-6.819,18.321-1.436,3.994-2.826,8.077a15.486,15.486,0,0,0,9.889-3.481Zm-32.041,93.053q-.807,6.231-1.08,11.46a62.167,62.167,0,0,0,.457,13.185q.875,5.181,3.328,6.483t4.633-1.753a28.974,28.974,0,0,0,3.806-9.092,103.044,103.044,0,0,0,2.619-14.16q.179-1.466.325-2.957c-4.414-1.206-9.127-2.258-14.087-3.165Zm9.223-45.973q-2.219,8.715-4.02,17.044-.708,3.275-1.349,6.446,5.37.183,10.4.54-.283-3.4-.735-6.787a78.423,78.423,0,0,0-3.8-16.25l-.229-.634-.265-.359ZM452.706,477.669a96.944,96.944,0,0,0,9.655,6.808c9.623,5.915,17.975,9.667,24.893,10,6.9.332,12.371-2.74,16.263-10.467a44.028,44.028,0,0,0,4.506-22.419c-.527-6.395-2.828-12.4-7.7-16.554-6.036-5.14-13.231-3.327-19.817.843-6.606,4.183-12.6,10.736-16.219,15.042a115.227,115.227,0,0,0-11.576,16.746Zm-48.079-16.66q-.784-.221-1.571-.408a23.172,23.172,0,0,0-20.258,5.325c-9.887,8.7-7.313,26.344,2.048,36.745l6.256-15.453,1.276-3.15a2.728,2.728,0,0,1,3.3-1.585l8.953-21.475Zm56.61-79.068a1.792,1.792,0,0,0-.788-1.2l-.052-.031a1.65,1.65,0,0,0-1.323-.13,2.1,2.1,0,0,0-1.142.9L443.074,407.35a2.272,2.272,0,0,0-.269,1.55,1.792,1.792,0,0,0,.788,1.2l.054.032a1.648,1.648,0,0,0,1.32.129,2.1,2.1,0,0,0,1.141-.9l14.859-25.868a2.273,2.273,0,0,0,.269-1.55Zm-8.408-3.7a1.742,1.742,0,0,0-.881-1.116l-.026-.012a1.677,1.677,0,0,0-1.372-.02,2.156,2.156,0,0,0-1.1,1.039l-12.919,26.9a2.242,2.242,0,0,0-.152,1.558,1.743,1.743,0,0,0,.881,1.115l.026.013a1.678,1.678,0,0,0,1.371.02,2.161,2.161,0,0,0,1.1-1.039l12.92-26.9a2.243,2.243,0,0,0,.152-1.558Zm-8.221-3.485a1.7,1.7,0,0,0-.957-1.036l-.017-.007a1.709,1.709,0,0,0-1.391.086,2.2,2.2,0,0,0-1.045,1.152l-11.191,27.642a2.207,2.207,0,0,0-.051,1.555,1.654,1.654,0,0,0,2.366.957,2.2,2.2,0,0,0,1.045-1.152l11.19-27.641a2.206,2.206,0,0,0,.051-1.555Zm-9.257-4.451h0a2.092,2.092,0,0,0-2.5,1.473l-9.423,28.275a2.006,2.006,0,0,0,1.139,2.615h0a2.092,2.092,0,0,0,2.5-1.473l9.423-28.275a2.006,2.006,0,0,0-1.139-2.615Zm-8.629-3.321h0a2.142,2.142,0,0,0-2.4,1.684l-7.3,28.833a1.958,1.958,0,0,0,1.342,2.485h0a2.142,2.142,0,0,0,2.4-1.684l7.3-28.834a1.958,1.958,0,0,0-1.342-2.484Z" transform="translate(-347.354 -345.908)" fill="#fff"/>
  <path id="Path_625" data-name="Path 625" d="M1220.836,936.2c-8.918,9.594-24.513-.529-18.862-13.48l.112-.258.126-.251c8.3-16.422,23.8-31.709,42.5-34.931,7.015-1.208,14.076.724,18.962,6.031a19.154,19.154,0,0,1,4.6,17.477c-2.116,8.476-9.531,13.262-17.957,13.745l-.112.006-.112,0c-11.18.387-21.214,3.732-29.264,11.655Z" transform="translate(-991.253 -751.002)" fill-rule="evenodd"/>
  <path id="Path_626" data-name="Path 626" d="M1245.935,961.451c8.477-8.44,20.123-14.147,36.071-14.7,14.527-.834,10.584-20.029-3.363-17.628-14.745,2.541-28.009,15.122-35.353,29.646-1.225,2.807,1.2,4.342,2.646,2.68Z" transform="translate(-1023.501 -783.096)" fill="#fff" fill-rule="evenodd"/>
  <path id="Path_627" data-name="Path 627" d="M1205.822,441.3a25.623,25.623,0,0,1-5.812-8.268c-4.593-10.345-2.251-22.814,4.931-31.383,9.129-10.893,23.192-13.36,36.562-10.4l.24.053q.4-.23.814-.449c9.466-5.014,21.2-4.065,30.667.407,10.811,5.105,17.884,14.076,19.429,24.414a26.472,26.472,0,0,1,7.152.57,25.58,25.58,0,0,1,11.817,6.043c8.169,7.487,9.058,18.242,4.986,28.033q.213.528.4,1.075a24.2,24.2,0,0,1-4.367,22.927c-6.086,7.454-15.378,10.232-24.718,8.893l-.173.312.17.14-7.775,11.3c-4.682,3.653-10.411,2.551-16.82-.754l-.256-.132-.247-.149a264.8,264.8,0,0,0-28.273-14.49,195.937,195.937,0,0,0-22.067-8.56c-4.7-1.445-9.36-3.123-11.422-8.077a12.622,12.622,0,0,1,.006-9.039l-.242-.065,2.962-7.428,1.807-4.814.148.022.078-.18Z" transform="translate(-988.864 -369.189)" fill-rule="evenodd"/>
  <path id="Path_628" data-name="Path 628" d="M1309.375,505.4c-1.051,1.847-2.176,3.893-3.273,5.989-6.624-4.289-15.1-8.694-21.234-10.53a.124.124,0,0,0-.091.229,115.084,115.084,0,0,1,20.032,12.7c-1.987,3.438-3.284,4.01-9.457.827-12.243-7.384-35.386-18.7-52.264-23.911-6.031-1.845-6.886-2.649-5.683-6.316.57-1.639,1.208-3.423,1.889-5.237a143.612,143.612,0,0,1,28.892,8.092.124.124,0,0,0,.111-.22c-6.791-4.208-18.128-8.465-27.77-11.059.728-1.826,1.483-3.611,2.237-5.238a27.285,27.285,0,0,0,8.17,2.216l2.868.331a39.1,39.1,0,0,0,15.692,10.692,41.678,41.678,0,0,0,20.919,2.377c2.039,7.773,10.1,14.722,16.8,18.065q1.063.531,2.162.992Zm-44.448-63.717c4.686-32.9,58.8-14.557,45.329,15.964a.124.124,0,0,0,.051.159.122.122,0,0,0,.157-.033c9.436-12.1,35.232-2.863,25.944,17.929-2.572-2.158-7.712-2.959-10.72-2.366a.123.123,0,0,0,0,.242c19.722,3.273,13.736,32.5-8.644,29.138-11.059-1.863-21.546-11.842-22.3-19.111a20.306,20.306,0,0,0,6.505-6.9.123.123,0,0,0-.19-.15c-15.385,13.35-51.094,1-49.647-23.519a.123.123,0,0,0-.235-.059,18.069,18.069,0,0,0,.3,15.22c-28.4-3.277-20.463-48.518,16.209-40.407-2.267,2.807-4.543,9.995-3,13.919a.122.122,0,0,0,.125.078.121.121,0,0,0,.11-.108Z" transform="translate(-1016.922 -397.285)" fill="#fff" fill-rule="evenodd"/>
  <path id="Path_629" data-name="Path 629" d="M1629.265,659.446a14.55,14.55,0,0,0,2.569-13.494c-1.622-4.7-5.651-7.288-10.417-8.079l-.017,0a23.372,23.372,0,0,1,7.865,21.576Z" transform="translate(-1312.807 -560.602)" fill="#dedede" fill-rule="evenodd"/>
  <path id="Path_630" data-name="Path 630" d="M833.17,1541.682l1.2-3.147-2.022-.77-1.2,3.147,2.022.77Zm-8.449,6.83,5.6-14.715,5.874,2.238,1.348,2.737-1.466,3.85-2.2.835,1.328,2.153-2.294,6.024-3.085-1.175,2.294-6.024-2.022-.77-2.294,6.023-3.085-1.175Zm12.2,4.625,4.413-15.115,6.7,1.956-.838,2.869-3.533-1.031-.813,2.783,2.955.863-.838,2.869-2.955-.863-1.088,3.725,3.533,1.031-.838,2.869-6.7-1.957Zm11.818-1.963,3.257.539-.339,2.047,2.134.354.531-3.205-2.841-.727-2.129-2.7.779-4.705,2.643-1.759,3.741.619,1.956,2.521-.48,2.9-2.949-.489.346-2.091-2.134-.354-.517,3.121,2.838.726,2.133,2.7-.793,4.79-2.643,1.759-4.071-.674-1.934-2.517.473-2.857Zm14.162,7.467L864.66,1546l-2.3-.32.412-2.96,7.886,1.1-.412,2.96-2.3-.32-1.759,12.636-3.291-.458Zm12.406-5.355,1.981.027-.715-6.88-.327,0-.94,6.858Zm-4.031,5.879,2.616-15.713,5.289.071,2.108,15.776-3.341-.045-.321-2.948-2.743-.037-.374,2.939-3.234-.044Zm13.857-2-1.027-13.54,3.292-.25.964,12.721,2.157-.164-.964-12.721,3.291-.25,1.027,13.541-2.149,2.336-4.114.312-2.476-1.986Zm17.343-9.4-.55-3.323-2.135.354.551,3.323,2.134-.354Zm-3.856,10.157-2.573-15.535,6.2-1.027,2.544,1.685.673,4.064-1.482,1.832,2.232,1.19,1.053,6.359-3.257.54-1.053-6.359-2.134.354,1.053,6.359-3.256.539Zm14.337-8.943,1.9-.555-2.7-6.368-.314.092,1.112,6.832Zm-2.131,6.8-2.1-15.79,5.078-1.482,6.64,14.465-3.208.937-1.171-2.725-2.633.769.5,2.92-3.1.906Zm13.524-4.05-5.967-14.572,2.866-1.173,5.869,7.141-3.347-8.174,2.683-1.1,5.967,14.572-2.684,1.1-6.315-7.653,3.59,8.769-2.663,1.09Zm13.81-5.878-6.04-11.238-2.043,1.1-1.415-2.632,7.013-3.77,1.415,2.633-2.043,1.1,6.04,11.237-2.927,1.573Z" transform="translate(-703.779 -1242.072)" fill="#fff"/>
  <path id="Path_631" data-name="Path 631" d="M826.754,1576.24l2.392.911,2.294-6.024,2.715,1.034-2.294,6.024,2.391.911,2.1-5.506-1.383-2.241q-2.8-1-5.539-2.126l-2.673,7.018Zm12.18,4.587,5.989,1.749.63-2.157-3.533-1.031,1.3-4.437,2.954.863.262-.9q-2.736-.709-5.425-1.532l-2.174,7.445Zm11.664-1.284-.386,2.332,1.747,2.273,3.782.626,2.387-1.589.74-4.469-1.117-1.416q-2.9-.491-5.761-1.1l1.259,1.6,3.049.78-.647,3.906-2.866-.475.339-2.046-2.525-.418Zm14.275,6.724,2.556.356,1.106-7.945c-.859-.075-1.717-.153-2.572-.244l-1.091,7.834Zm8.393.476,2.471.033.374-2.939,3.4.046.321,2.948,2.583.035-1.026-7.681c-.353,0-.7.013-1.058.013-.446,0-.889-.013-1.334-.017l.254,2.45-2.818-.038.335-2.444c-.744-.021-1.485-.052-2.226-.084l-1.278,7.677Zm13.777-1.822,2.237,1.793,3.823-.289,1.941-2.111-.445-5.869c-.847.089-1.7.166-2.548.24l.42,5.534-2.9.219-.42-5.536c-.85.055-1.7.106-2.555.145l.445,5.873Zm13.435.516,2.524-.418-1.053-6.36,2.867-.474,1.053,6.359,2.524-.418-.963-5.812L904.964,1577l.055-.067q-2.876.534-5.793.941l1.253,7.565Zm12.212-2.191,2.372-.692-.5-2.92,3.267-.954L919,1581.4l2.48-.724-3.178-6.923c-.767.225-1.539.442-2.311.656l.929,2.191-2.7.79-.391-2.4c-.717.184-1.438.355-2.16.527l1.029,7.723Zm13.416-4.056,1.976-.809-2.816-6.878c-.672.238-1.343.477-2.019.7l2.859,6.982Zm.387-8.119,4.91,5.95,2.087-.855-2.758-6.735c-.667.27-1.336.532-2.007.793l1.22,2.981-2.157-2.625c-.431.165-.862.331-1.3.49Zm13.372,2.222,2.274-1.222-3.336-6.208c-.775.375-1.557.738-2.341,1.1l3.4,6.332Z" transform="translate(-705.333 -1270.015)" fill="#e6e6e6" fill-rule="evenodd"/>
  <path id="Path_632" data-name="Path 632" d="M932.6,449.395a5.616,5.616,0,1,1-5.616,5.616,5.616,5.616,0,0,1,5.616-5.616Z" transform="translate(-781.952 -416.521)" fill="#fff" fill-rule="evenodd"/>
  <path id="Path_633" data-name="Path 633" d="M1088.755,627.9a4.753,4.753,0,1,1-4.753,4.753,4.753,4.753,0,0,1,4.753-4.753Z" transform="translate(-901.988 -552.982)" fill="#fff" fill-rule="evenodd"/>
  <path id="Path_634" data-name="Path 634" d="M1155.24,526.044a1.971,1.971,0,1,1-1.971,1.971,1.971,1.971,0,0,1,1.971-1.971Z" transform="translate(-954.94 -475.116)" fill="#fff" fill-rule="evenodd"/>
  <path id="Path_635" data-name="Path 635" d="M481.412,1228.389a3.052,3.052,0,1,1,1.4-4.083,3.053,3.053,0,0,1-1.4,4.083Z" transform="translate(-437.975 -1007.599)" fill="#fff" fill-rule="evenodd"/>
  <path id="Path_636" data-name="Path 636" d="M1698.682,1055.266a3.493,3.493,0,1,1-3.492,3.493,3.493,3.493,0,0,1,3.492-3.493Z" transform="translate(-1369.216 -879.685)" fill="#fff" fill-rule="evenodd"/>
  <path id="Path_637" data-name="Path 637" d="M679.044,677.2a1.91,1.91,0,1,1-1.911,1.91,1.91,1.91,0,0,1,1.911-1.91Z" transform="translate(-590.953 -590.666)" fill="#fff" fill-rule="evenodd"/>
  <path id="Path_638" data-name="Path 638" d="M1578.623,1328a1.963,1.963,0,1,1-1.963,1.964,1.963,1.963,0,0,1,1.963-1.964Z" transform="translate(-1278.604 -1088.175)" fill="#fff" fill-rule="evenodd"/>
  <path id="Path_639" data-name="Path 639" d="M755.642,1578.93a2.237,2.237,0,1,1-2.237,2.238,2.238,2.238,0,0,1,2.237-2.238Z" transform="translate(-649.26 -1280.004)" fill="#fff" fill-rule="evenodd"/>
  <path id="Path_640" data-name="Path 640" d="M918.786,501.72a2.455,2.455,0,1,1-2.454,2.455,2.455,2.455,0,0,1,2.454-2.455Z" transform="translate(-773.811 -456.521)" fill="#fff" fill-rule="evenodd"/>
  <path id="Path_641" data-name="Path 641" d="M494.376,1258.946a1.584,1.584,0,1,1,.728-2.118,1.584,1.584,0,0,1-.728,2.118Z" transform="translate(-449.502 -1033.09)" fill="#fff" fill-rule="evenodd"/>
  <path id="Path_642" data-name="Path 642" d="M1096.082,1524.675a1.429,1.429,0,1,1-1.429,1.429,1.429,1.429,0,0,1,1.429-1.429Z" transform="translate(-910.13 -1238.528)" fill="#fff" fill-rule="evenodd"/>
  <path id="Path_643" data-name="Path 643" d="M754.681,1170.375q-.058.715-.111,1.43a108.812,108.812,0,0,0,.136,20.823,31.316,31.316,0,0,0,1.368,6.514,23.581,23.581,0,0,0,2.19,4.766,10.9,10.9,0,0,0,2.444,2.87,5.6,5.6,0,0,0,2.2,1.139,8.456,8.456,0,0,0,7.12-1.6,21.4,21.4,0,0,0,5.833-7.743,55.692,55.692,0,0,0,4.1-12.63,113.982,113.982,0,0,0,1.893-12.44l.193-1.967,1.887.59a91.779,91.779,0,0,1,13.265,5.208,44.573,44.573,0,0,1,7.661,4.72,51.892,51.892,0,0,1,5.117,4.668,63.73,63.73,0,0,0,8.1,7.33c2.213,1.6,5.523,3.37,8.251,2.04,3.743-1.825,4.614-8.164,4.628-11.864a35.515,35.515,0,0,0-5.49-18.855,24.635,24.635,0,0,0-9.5-8.78c-8.482-4.272-19.821-6.073-29.275-7.074-.183,1.361-.39,2.72-.657,4.067-.149.754-.318,1.5-.515,2.248-.608,2.3-3.239,1.741-3.149-.8q.03-.838.024-1.677c-.01-1.88-.1-3.757-.22-5.633-.191-2.852-.488-5.7-.857-8.533-.1-.779-.216-1.557-.336-2.333a93.64,93.64,0,0,0-3.162-13.975,49.58,49.58,0,0,0-2.95-7.255l-.275-.55.791-2.9.457-1.663,1.627.573c7.42,2.611,19.464.7,26.591-2.311,6.662-2.811,11.892-7.854,15.89-13.793a52.515,52.515,0,0,0,5.74-11.777c.444-1.406-.911-2.023-1.547-.482a43.061,43.061,0,0,1-6.786,11.961C812,1101.1,805.128,1105.4,796.79,1106.6c-8.183,1.176-18.841.226-26.375-3.292a1.6,1.6,0,1,1,1-3.033,44.5,44.5,0,0,0,7.144.844q1.194-4.036,2.444-8.056-6.813,1.717-13.716,3.047-.453,2.033-.9,4.067l-.413,1.872-1.772-.733c-1.092-.452-2.174-.929-3.231-1.458a22.925,22.925,0,0,0-2.371-1.149l-.074-.022-.085-.037c-.178-.077-.517-.249-.678-.07a2.806,2.806,0,0,0-.689,1.611,5.224,5.224,0,0,0,.268,2.286c.106.31.256.662.614.742l.04.009a19.633,19.633,0,0,1,6.1,2.692l.912.605-.229,1.07q-.787,3.671-1.549,7.348-.227,1.094-.451,2.19l-.059.288-.157.249a58.263,58.263,0,0,1-5.6,7.527,46.622,46.622,0,0,1-6.108,5.826,38.978,38.978,0,0,1-6.146,4,21.711,21.711,0,0,1-5.854,2.136,5.537,5.537,0,0,1-6.493-3.24,23.9,23.9,0,0,1-1.791-8.826v-.025a59.887,59.887,0,0,1,.359-8.321,26.727,26.727,0,0,1-5.574.316,1.6,1.6,0,0,1-.221-3.182c4.6-.915,9.063-3.3,13-5.775a50.789,50.789,0,0,0,4.727-3.366,46.752,46.752,0,0,0,4.712-4.345q.7-.739,1.358-1.518-2.333.251-4.671.448c-2.38,2.514-5.549,5.227-8.779,6.493l-2.933,1.15.79-3.05q.521-2.01,1.12-4-9.215.345-18.434-.16a57.037,57.037,0,0,0-1.408,19l.059.636-.393.5q-1.678,2.147-3.463,4.207a57.3,57.3,0,0,1-8.581,8.162c-1.354,1.121-3.789,3.226-5.648,2.14-1.786-1.044-1.323-4.161-1.154-5.881a119.877,119.877,0,0,1,7.243-29.984q-8.112-1.016-16.123-2.689c-1.055,4.463-2.17,8.911-3.263,13.365q-1.174,4.785-2.094,9.628c-1.511,7.93-3.569,16.266,3.578,22.172a12.837,12.837,0,0,0,5.344,2.673,8.35,8.35,0,0,0,5.025-.257,31.262,31.262,0,0,0,8.918-5.613,77.157,77.157,0,0,0,8.878-9.2q.437-.53.869-1.067l1.82-2.261.951,2.743a26.632,26.632,0,0,0,3.466,6.712,21.2,21.2,0,0,0,6.816,6.072,22.689,22.689,0,0,0,10.432,2.644,14.275,14.275,0,0,0,8.276-2.715,48.636,48.636,0,0,0,9.194-8.137q1.293-1.438,2.514-2.939l3.939-4.829-1.112,6.132q-1.27,7.008-2.365,14.046-.132.855-.262,1.711l-.206,1.366h-1.382c-22.174.016-44.348,1.6-66.4,3.814q-30.551,3.066-60.9,7.841a42.1,42.1,0,0,1-11.194,4.469,1.6,1.6,0,1,1-1.048-3.018,39.522,39.522,0,0,0,9.947-7.373,68.561,68.561,0,0,0,5.5-6.124c.084-.112.167-.224.25-.337l.842-1.153.053.03q.91-1.187,1.777-2.407a150.727,150.727,0,0,0,8.836-13.969c2.045-3.671,3.965-7.412,5.729-11.226l3.376-7.3-.311,8.035c-.2,5.115-.855,12.7,1.7,17.272a17.3,17.3,0,0,0,4.151,5.162c1.156.921,5.044,3.856,6.556,2.979,1.326-.769,1.362-4.615,1.334-5.976a169.8,169.8,0,0,1,.567-17.169c.435-5.409,1.015-10.807,1.783-16.179q.566-3.958,1.25-7.9l.051-.29.15-.253c.9-1.526,1.819-3.046,2.756-4.551q-7.074-1.943-14.032-4.272a120.275,120.275,0,0,1-16.3,31.944c-5.242,7.4-11.691,14.731-19.164,19.941-5.872,4.094-13.118,7.3-20.424,6.109a18.794,18.794,0,0,1-6.3-2.236c-23.99-12.5-17.324-56.541-12.672-78.671a53.354,53.354,0,0,0-29.5,7.76c-2.007,14.354-2.459,29.332-.254,43.678,2.256,14.683,7.571,29.767,18.451,40.314a47.071,47.071,0,0,0,4.989,4.209c4.384,3.2,10.181,6.283,15.541,7.315a1.6,1.6,0,1,1-.266,3.186,44.684,44.684,0,0,1-15.261-2.641q-3.352.74-6.7,1.54c-6.762,1.494-8,9.439,1.029,8,7.212-2.024,14.524-3.683,21.868-5.15,8.648-1.727,17.351-3.175,26.082-4.423,19.613-2.8,39.376-4.634,59.167-5.542,22.041-1.011,44.3-.952,66.268,1.263,2.282.23,4.562.472,6.835.773.516.068,1.033.131,1.55.2l1.52.2,0,.045a47.38,47.38,0,0,1,5.893,1.22,1.6,1.6,0,1,1-.535,3.15c-1.905-.106-3.818-.095-5.725-.029Zm10.515-2.768c4.78.875,9.533,1.914,14.221,3.2l1.308.357-.132,1.35q-.147,1.5-.329,3a103.541,103.541,0,0,1-2.663,14.384,30.632,30.632,0,0,1-4.049,9.608c-1.623,2.275-3.983,3.678-6.695,2.24-2.674-1.419-3.69-4.858-4.159-7.635a62.639,62.639,0,0,1-.477-13.536c.2-3.874.592-7.736,1.091-11.583l.218-1.68,1.666.3Zm8.213-48.077,2.419,3.278.308.854a79.973,79.973,0,0,1,3.88,16.583q.457,3.424.744,6.867l.156,1.87-1.872-.133q-5.163-.366-10.338-.537l-1.9-.064.376-1.861q.654-3.238,1.354-6.468,1.857-8.587,4.033-17.1l.837-3.289Z" transform="translate(-495.688 -887.342)" fill="#e6e6e6" fill-rule="evenodd"/>
  <path id="Path_644" data-name="Path 644" d="M1324.541,517.6q-.607-.276-1.2-.574c-6.874-3.432-14.648-10.237-17.067-17.845a42.9,42.9,0,0,1-20.561-2.557,40.235,40.235,0,0,1-15.833-10.678l-2.489-.287a28.652,28.652,0,0,1-7.558-1.907q-.731,1.628-1.4,3.285,4.516,1.255,8.947,2.8a93.752,93.752,0,0,1,18.011,8.075,1.113,1.113,0,0,1-.993,1.982,152.953,152.953,0,0,0-17.328-5.625c-3.45-.9-7.023-1.72-10.558-2.287q-.246.663-.488,1.328c15.559,2.62,33.245,14.485,47.369,9.5,0,0,2.958,9.256,19.97,16.921q.584-1.071,1.183-2.134Zm.407-68.178c-2.107,16.585-10.055,36.765-35.562,41.349,8.844,2.988,20.263,3.137,27.6-3.226a1.112,1.112,0,0,1,1.715,1.355,21.8,21.8,0,0,1-6.311,6.943c.506,2.809,2.445,5.66,4.258,7.719a32.482,32.482,0,0,0,9.711,7.423,26.641,26.641,0,0,0,7.41,2.484c6.02.9,12.071-.57,16.031-5.423a14.573,14.573,0,0,0,2.72-13.682c-1.622-4.7-5.651-7.288-10.417-8.079a1.112,1.112,0,0,1-.034-2.189,16.667,16.667,0,0,1,10.472,1.822c2.282-5.844,2.146-12.155-2.808-16.7-5.97-5.471-16.694-5.807-21.918.89a1.111,1.111,0,0,1-1.893-1.133c2.687-6.088,2.9-12.543-.329-18.464q-.3-.557-.641-1.094Zm-61.405,28.514c-.9-4.747-1.18-11.723,4.055-14.32v.068a1.112,1.112,0,0,0-.75.617,19.423,19.423,0,0,0-.464,14.379,21.62,21.62,0,0,1-2.843-.744Zm13.4-38.357c-.354,4.9.171,10.369,3.287,13.927-1.229-3.65.216-9.711,2.367-13.307a37.953,37.953,0,0,0-5.655-.62Z" transform="translate(-1033.488 -409.019)" fill="#e6e6e6" fill-rule="evenodd"/>
</svg>
