<svg xmlns="http://www.w3.org/2000/svg" width="34.388" height="36.173" viewBox="0 0 34.388 36.173">
  <g id="Group_190" data-name="Group 190" transform="translate(-12.636)">
    <path id="Path_720" data-name="Path 720" d="M46.73,95.16a2.329,2.329,0,0,0-3.167-.9l-3.695,2.053-2.435-3.725c-.072,0-.144.006-.217.006a6.008,6.008,0,0,1-5.5-3.594H24.047a2.329,2.329,0,0,0-2.04,1.205l-2.95,5.356a2.329,2.329,0,1,0,4.08,2.247l2.286-4.151h4.4l-6.715,11.721H14.965a2.329,2.329,0,1,0,0,4.657h9.47a2.329,2.329,0,0,0,2-1.144l1.673-2.831,4.223,3.327-2.532,6.3a2.329,2.329,0,1,0,4.321,1.737l3.183-7.918a2.329,2.329,0,0,0-.719-2.7l-4.683-3.689,3.238-5.524,2.014,3.08a2.328,2.328,0,0,0,3.08.761l5.589-3.1a2.329,2.329,0,0,0,.9-3.167Z" transform="translate(0 -82.706)" fill="#fff"/>
    <circle id="Ellipse_130" data-name="Ellipse 130" cx="3.881" cy="3.881" r="3.881" transform="translate(33.336)" fill="#fff"/>
  </g>
</svg>
